<svg version="1.0" xmlns="http://www.w3.org/2000/svg"
 width="2048.000000pt" height="2048.000000pt" viewBox="0 0 2048.000000 2048.000000"
 preserveAspectRatio="xMidYMid meet">

<g transform="translate(0.000000,2048.000000) scale(0.100000,-0.100000)"
fill="#000000" stroke="none">
<path d="M0 10240 l0 -10240 10240 0 10240 0 0 10240 0 10240 -10240 0 -10240
0 0 -10240z m10866 5738 c792 -809 1099 -1122 1579 -1608 436 -441 1320 -1341
2010 -2045 269 -275 636 -648 815 -830 179 -181 501 -507 714 -723 l388 -394
-414 -416 c-228 -230 -1136 -1146 -2019 -2037 -2615 -2640 -3721 -3755 -3726
-3755 -3 0 -195 192 -426 428 -231 235 -671 679 -976 987 -306 308 -840 846
-1186 1195 -1254 1265 -2005 2020 -2783 2803 -437 438 -792 801 -790 806 5 16
51 63 1228 1256 540 548 991 1006 1395 1415 348 353 829 840 1495 1515 694
702 1824 1849 1929 1958 58 59 108 107 112 107 3 0 298 -298 655 -662z"/>
<path d="M8794 14563 c-780 -791 -1615 -1636 -1854 -1878 -1065 -1077 -2265
-2297 -2268 -2304 -1 -4 229 -241 512 -527 l514 -519 176 175 c97 96 175 178
174 181 -2 4 -155 161 -341 349 l-338 343 108 111 c318 327 1118 1142 1543
1571 267 269 825 834 1241 1255 415 421 1022 1035 1347 1365 326 330 596 601
601 603 8 3 273 -265 1671 -1688 322 -327 701 -713 843 -856 142 -144 265
-271 273 -283 15 -21 -1 -39 -543 -587 -307 -311 -676 -686 -820 -832 l-262
-267 -237 240 c-348 351 -832 842 -1223 1239 l-344 349 -201 -204 c-403 -407
-3134 -3177 -3236 -3282 l-104 -107 172 -173 172 -173 213 216 c569 577 922
935 1722 1745 478 484 954 966 1058 1070 l188 190 159 -163 160 -164 -476
-481 c-1022 -1034 -2495 -2527 -2590 -2626 -54 -57 -99 -109 -99 -116 0 -8
515 -532 1144 -1167 630 -634 1415 -1426 1745 -1759 331 -333 603 -607 606
-607 5 -2 252 247 2259 2278 476 481 1126 1138 1446 1460 628 633 1300 1312
1626 1643 l206 209 -514 516 -513 517 -176 -179 -175 -179 83 -86 c45 -47 197
-202 338 -343 l254 -257 -99 -103 c-97 -100 -2020 -2046 -2942 -2977 l-462
-466 -503 505 c-277 278 -830 836 -1228 1240 -399 404 -735 743 -747 752 -21
18 -25 14 -520 -488 -274 -278 -500 -510 -501 -515 -2 -5 371 -388 830 -850
458 -462 947 -957 1086 -1099 l252 -258 173 175 c94 96 172 178 172 182 0 7
-412 426 -1607 1636 l-207 210 155 156 155 156 347 -351 c191 -193 523 -528
738 -746 214 -217 538 -545 720 -728 181 -183 330 -336 332 -340 1 -4 -216
-225 -483 -492 l-486 -485 -437 440 c-240 242 -873 880 -1405 1418 l-969 977
27 32 c24 29 295 306 1327 1354 l278 281 787 -796 c433 -438 842 -851 908
-919 l121 -123 129 133 c287 294 1942 1977 3237 3293 93 94 168 175 168 180 0
6 -76 86 -168 178 l-168 168 -305 -308 c-167 -169 -459 -465 -649 -658 -190
-192 -507 -514 -706 -715 -198 -201 -621 -629 -940 -953 -318 -323 -581 -587
-584 -587 -3 0 -78 73 -167 163 l-162 162 291 295 c161 162 699 706 1197 1209
498 502 909 918 912 923 3 5 183 187 400 404 l393 394 -94 97 c-52 54 -288
293 -525 533 -1099 1112 -2664 2704 -2794 2841 -46 49 -86 89 -90 89 -4 0
-646 -647 -1427 -1437z"/>
<path d="M10153 14576 c-37 -39 -646 -658 -1353 -1376 -1885 -1914 -2573
-2613 -2685 -2728 l-99 -103 169 -171 c94 -95 172 -175 173 -178 2 -3 63 56
135 130 164 169 1766 1800 2652 2700 667 678 887 901 973 990 l93 95 402 -406
c545 -550 1057 -1076 1057 -1086 0 -5 -68 -76 -150 -158 l-150 -150 -248 250
c-137 138 -394 399 -573 582 l-326 332 -177 -178 c-137 -137 -176 -182 -170
-194 5 -8 343 -355 751 -770 l742 -755 42 46 c67 74 317 330 660 677 l317 321
-41 44 c-39 44 -303 312 -1057 1075 -206 209 -531 538 -722 731 l-347 352 -68
-72z"/>
<path d="M13550 10238 c-1534 -1561 -2205 -2243 -2285 -2326 l-89 -93 174
-173 175 -174 1430 1451 c787 797 1431 1454 1433 1458 2 4 -75 87 -170 184
l-173 177 -495 -504z"/>
</g>
</svg>
